<svg xmlns="http://www.w3.org/2000/svg" width="33" height="33" viewBox="0 0 33 33" fill="none">
  <path d="M12 14.6899L16.5 9.68994M16.5 9.68994L21 14.6899M16.5 9.68994V22.6899M16.5 3.68994C19.8152 3.68994 22.9946 5.0069 25.3388 7.35111C27.683 9.69531 29 12.8747 29 16.1899C29 19.5051 27.683 22.6846 25.3388 25.0288C22.9946 27.373 19.8152 28.6899 16.5 28.6899C13.1848 28.6899 10.0054 27.373 7.66117 25.0288C5.31696 22.6846 4 19.5051 4 16.1899C4 12.8747 5.31696 9.69531 7.66117 7.35111C10.0054 5.0069 13.1848 3.68994 16.5 3.68994Z" stroke="white" stroke-width="3" stroke-linecap="round" stroke-linejoin="round"/>
</svg>