<svg xmlns="http://www.w3.org/2000/svg" width="17" height="17" viewBox="0 0 17 17" fill="none">
  <path d="M9.593 2.78394C9.593 2.78394 11.031 4.77294 11.031 8.68994C11.031 12.6069 9.593 14.5959 9.593 14.5959M7.407 2.78394C7.407 2.78394 5.969 4.77294 5.969 8.68994C5.969 12.6069 7.407 14.5959 7.407 14.5959M2.255 8.68994H14.745M14.75 8.68994C14.75 10.3475 14.0915 11.9373 12.9194 13.1094C11.7473 14.2815 10.1576 14.9399 8.5 14.9399C6.8424 14.9399 5.25268 14.2815 4.08058 13.1094C2.90848 11.9373 2.25 10.3475 2.25 8.68994C2.25 7.03234 2.90848 5.44263 4.08058 4.27052C5.25268 3.09842 6.8424 2.43994 8.5 2.43994C10.1576 2.43994 11.7473 3.09842 12.9194 4.27052C14.0915 5.44263 14.75 7.03234 14.75 8.68994Z" stroke="white" stroke-width="1.5" stroke-linecap="round" stroke-linejoin="round"/>
</svg>