<svg width="25" height="25" viewBox="0 0 25 25" fill="none" xmlns="http://www.w3.org/2000/svg">
<g id="SVG">
<path id="Vector" fill-rule="evenodd" clip-rule="evenodd" d="M7.253 15.286V17.476L2 12.2245L3.101 11.1325L7.253 15.2875V15.286ZM9.4445 17.476H7.253L12.506 22.7305L13.601 21.6355L9.443 17.4775L9.4445 17.476ZM21.905 13.3255L23 12.2305L12.503 1.73047L11.408 2.82547L15.5555 6.98047H13.0475L10.1525 4.08547L9.0575 5.18047L10.859 6.98347H9.605V15.13H17.75V13.87L19.5545 15.6745L20.6495 14.5795L17.7515 11.68V9.17197L21.9065 13.324L21.905 13.3255ZM7.802 6.43147L6.707 7.52647L7.8815 8.70247L8.9765 7.60747L7.802 6.43147ZM17.1245 15.754L16.0325 16.849L17.2085 18.0235L18.3035 16.9285L17.1245 15.754ZM5.45 8.78197L4.355 9.87697L7.2515 12.7765V10.5835L5.4515 8.78347L5.45 8.78197ZM14.1455 17.4775H11.954L14.852 20.3755L15.947 19.279L14.1455 17.4775Z" fill="white"/>
</g>
</svg>
